<?xml version="1.0" encoding="utf-8"?>
<svg id="svg2" viewBox="0 0 24 24" xmlns="http://www.w3.org/2000/svg" xmlns:bx="https://boxy-svg.com">
  <desc>Source: openclipart.org/detail/209545</desc>
  <rect x="0.037" y="1.729" width="24.647" height="5.54" style="stroke: rgb(0, 0, 0); fill: currentcolor;"/>
  <rect x="3.655" y="4.33" width="16.959" height="16.959" style="stroke: rgb(0, 0, 0); fill: currentcolor;"/>
  <path style="stroke: rgb(0, 0, 0); fill: currentcolor;" d="M 7.047 4.33 C 7.047 4.33 9.596346818989156 9.421349316832046 11.117 9.53 C 12.739346891448102 9.645916699673798 16.845508430274307 5.200816168751327 16.544 4.33 C 16.306641089529045 3.6444603723111326 13.471810938286108 3.8805045071932365 11.908 3.877 C 10.307032762373499 3.8734122253764585 7.047 4.33 7.047 4.33 C 7.046999999999999 4.33 7.047 4.33 7.047 4.33 C 7.047 4.33 7.047 4.33 7.047 4.33" bx:d="M 7.047 4.33 R 11.117 9.53 R 16.544 4.33 R 11.908 3.877 R 7.047 4.33 R 7.047 4.33 Z 1@520aea56"/>
  <path style="fill: rgb(216, 216, 216); stroke: rgb(0, 0, 0);" d="M 9.534 7.156 C 9.534 7.156 10.990270963802642 8.335821485059727 11.682 8.287 C 12.385432535307572 8.237352494667805 13.717 6.817 13.717 6.817" bx:d="M 9.534 7.156 R 11.682 8.287 R 13.717 6.817 1@13dab231"/>
  <ellipse style="fill: rgb(216, 216, 216); stroke: rgb(0, 0, 0);" cx="10.269" cy="5.517" rx="0.509" ry="0.509"/>
  <ellipse style="fill: rgb(216, 216, 216); stroke: rgb(0, 0, 0);" cx="13.322" cy="5.517" rx="0.509" ry="0.509"/>
</svg>