<?xml version="1.0" encoding="UTF-8" standalone="no"?>
<!-- Created with Inkscape (http://www.inkscape.org/) -->

<svg
   viewBox="0 0 24 24"
   version="1.1"
   id="svg1"
   xml:space="preserve"
   inkscape:version="1.3 (0e150ed6c4, 2023-07-21)"
   sodipodi:docname="rest-logo-2.svg"
   xmlns:inkscape="http://www.inkscape.org/namespaces/inkscape"
   xmlns:sodipodi="http://sodipodi.sourceforge.net/DTD/sodipodi-0.dtd"
   xmlns="http://www.w3.org/2000/svg"
   xmlns:svg="http://www.w3.org/2000/svg"><sodipodi:namedview
     id="namedview1"
     pagecolor="#ffffff"
     bordercolor="#000000"
     borderopacity="0.25"
     inkscape:showpageshadow="2"
     inkscape:pageopacity="0.0"
     inkscape:pagecheckerboard="0"
     inkscape:deskcolor="#d1d1d1"
     inkscape:document-units="mm"
     inkscape:zoom="1.0242632"
     inkscape:cx="213.32407"
     inkscape:cy="220.15825"
     inkscape:window-width="1920"
     inkscape:window-height="1009"
     inkscape:window-x="-8"
     inkscape:window-y="-8"
     inkscape:window-maximized="1"
     inkscape:current-layer="layer1" /><defs
     id="defs1" /><g
     inkscape:label="Layer 1"
     inkscape:groupmode="layer"
     id="layer1"><path
       style="fill:#000000;stroke-width:0.0865971"
       d="M 24.1073,4.3930616 23.226797,4.1799617"
       id="path28" /><path
       style="fill:#000000;stroke-width:0.0865971"
       d="M 22.991999,3.4797752 23.6377,2.7187055"
       id="path29" /><path
       style="fill:#000000;stroke-width:0.0865971"
       d="m 24.224703,3.0231354 0.498951,0.2130999"
       id="path30" /><path
       style="fill:#000000;stroke-width:0.0865971"
       d="M 3.0808169,5.5107378 2.7487559,11.279785 2.0846404,16.96273 1.8355955,23.592831 C 9.0578722,24.7122 13.125591,24.195567 13.125591,24.195567 h 4.980879 l 1.660295,-1.377683 -0.415074,-3.960838 0.249045,-2.497053 2.075366,-1.980419 -0.49809,-2.841472 L 19.268675,9.6437861 18.521544,4.9941047 16.114117,4.0469484 14.70287,3.8747384 13.540665,3.9608417 12.627501,4.5635782 11.050225,4.3052649 H 9.5559588 8.2277246 C 7.8956669,4.1330517 7.1485353,3.7886318 7.1485353,3.7886318 H 6.1523589 c -0.3320578,0 -1.2452214,0.1722099 -1.2452214,0.1722099 C 4.4920637,4.0469484 3.7449322,4.2191583 3.7449322,4.2191583 L 3.1638297,5.0802113 Z M 2.8317719,9.7298928 0.75640302,11.107576 0.25831641,13.949048 0.92243511,15.49894 1.7525795,15.929467 2.499711,16.4461 5.4882402,15.671154 2.8317719,13.518521 2.1676532,12.571365 V 11.193682 L 2.499711,10.677049 Z M 10.137065,0.25831984 Z M 9.3069171,1.8082125 8.8088273,2.238739 8.3937535,3.099792 7.8956669,4.1330517 10.967209,4.3913682 12.212427,4.8218947 12.876546,4.6496848 13.872722,4.2191583 C 14.121767,3.8747384 14.20478,3.7886318 14.20478,3.7886318 L 13.540665,3.4442119 m -3.4036,-2.84147221 1.743304,0.77494631 0.664119,0.6027365 -0.166029,1.0332629 V 1.8943192 L 11.714341,1.549896 C 11.216254,1.2054761 11.216254,1.2054761 11.216254,1.2054761 V 0.43052977"
       id="path31" /><path
       style="fill:#000000;stroke-width:0.0865971"
       id="path32"
       d="m 6.7694549,8.0641834 c 0.1642067,0.4290699 0.3838206,0.8266964 0.6474975,1.1973962 0.1619025,0.1900366 0.21766,0.2741299 0.4177443,0.4299765 0.094338,0.073483 0.1934931,0.14081 0.296479,0.2005099 0.4587189,0.265903 0.9143109,0.539286 1.3877549,0.775793 0.1213972,0.06064 0.7268534,0.209183 0.8593794,0.243277 0.324721,0.07263 0.64823,0.09531 0.97827,0.08015 0,0 -0.988817,-0.738553 -0.988817,-0.738553 v 0 c -0.309688,0.01293 -0.6142748,-0.0068 -0.9183091,-0.07879 C 9.3097966,10.136426 9.1686738,10.104353 9.0304787,10.061399 8.884063,10.015889 8.5010104,9.7846861 8.5961902,9.9087394 8.7559139,10.116913 9.0318027,10.190043 9.2439384,10.339606 9.3373829,10.405489 9.0457694,10.226199 8.9525435,10.159979 8.8712821,10.102259 8.7940861,10.037959 8.721717,9.9686693 8.654628,9.904436 8.59745,9.8298927 8.5353197,9.7605061 8.2736707,9.4149562 8.0397559,9.0375064 7.9192521,8.6122166 Z" /><path
       style="fill:#00ff00;stroke-width:0.0865971"
       d="m 9.1408882,6.1995775 c 0,0.1148066 -0.021692,0.2318433 0,0.3444199 0.026995,0.1399899 0.09733,0.062353 0.1660289,0.086107 0.1173993,0.04059 0.2146584,0.13162 0.3320577,0.1722099 0.308225,0.1065667 0.5950952,0.086103 0.9131602,0.086103"
       id="path35" /><path
       style="fill:#00ff00;stroke-width:0.0865971"
       d="m 14.287796,6.8023139 c -0.11237,-0.2786165 -0.419933,0.1114467 -0.581103,0 -0.05148,-0.0356 -0.03153,-0.1366099 -0.08301,-0.1722099 -0.267338,-0.1848599 -0.454808,0.3631899 -0.49809,0.4305265 -0.04341,0.067543 -0.153161,0.092133 -0.166029,0.1722099 -0.0364,0.2264899 -0.05369,0.4660832 0,0.6888398 0.01501,0.062263 0.166029,0.1502866 0.166029,0.086107 0,-0.0287 -0.05534,0 -0.08301,0 -0.05534,0 -0.166032,-0.057403 -0.166032,0 0,0.057403 0.113527,-0.018167 0.166032,0 0.0587,0.0203 0.107328,0.06581 0.166029,0.086103 0.124521,0.043053 0.08301,-0.086103 0.249042,0 0.02474,0.012833 -0.02475,0.07327 0,0.086107 0.310034,0.1607866 0.606445,-0.1422999 0.830147,-0.2583165 0.07827,-0.04059 0.174009,-0.039407 0.249045,-0.086103 0.268967,-0.16739 0.08424,-0.13929 0.249045,-0.3444232 0.390759,-0.4863665 0.332058,-0.13907 0.332058,-0.6027365"
       id="path36" /><path
       style="fill:#00ff00;stroke-width:0.0865971"
       d="m 5.903314,13.949048 c -0.1660289,0.0861 -0.3389158,0.159253 -0.4980866,0.258313 -0.2041176,0.12703 -0.432402,0.23773 -0.5811027,0.430526 -0.089215,0.11567 -0.3062325,0.70031 -0.332061,0.861053 -0.042212,0.26271 0,0.59675 0,0.861053 0,0.0574 -0.046046,0.140367 0,0.17221 0.069075,0.04776 0.1660321,0 0.249045,0"
       id="path37" /><path
       style="fill:#00ff00;stroke-width:0.0865971"
       d="m 18.023457,14.723994 c 0.531371,0.193773 0.49809,0.542997 0.49809,1.033263 0,0.17221 0.08542,0.36896 0,0.51663 -0.05133,0.08874 -0.171136,0.107563 -0.249045,0.17221 -0.410755,0.340836 0.09942,-0.017 -0.332058,0.430526 -0.04375,0.04538 -0.122278,0.04072 -0.166032,0.08611 -0.169156,0.175453 -0.08846,0.50534 0,0.68884"
       id="path38" /><path
       style="fill:#00ff00;stroke-width:0.0865971"
       d="m 8.3107406,16.18778 c 0.0072,0.739117 -0.2967103,1.413796 -0.083016,2.152633 0.035559,0.122943 0.1360162,0.219893 0.1660289,0.34442 0.026834,0.111379 -0.035,0.235506 0,0.344419 0.024745,0.07702 0.1310285,0.0996 0.1660321,0.172214 0.041608,0.08632 -0.064444,0.363683 0,0.430526 0.044799,0.04647 0.4607114,-0.0078 0.4980866,0 0.060674,0.0126 0.1060003,0.07054 0.1660288,0.0861 0.6530669,0.169347 0.2996509,0.04378 0.830148,0.08611 0.479013,0.03822 1.102112,0.14874 1.577279,0.17221 0.103259,0.0051 1.420364,-0.08138 1.577279,0 0.298086,0.154593 0.727608,0.0861 1.079189,0.0861 0.328902,0 1.992353,-0.102223 1.992353,0.258317 0,0.04059 -0.06848,-0.04842 -0.08302,-0.0861 -0.134673,-0.349227 -0.166029,-0.749057 -0.166029,-1.11937 0,-0.17221 0.0297,-0.3472 0,-0.51663 -0.02667,-0.152073 -0.129888,-0.280576 -0.166029,-0.430526 -0.0522,-0.216564 -0.0423,-0.64167 0,-0.861053 0.02426,-0.125867 0.136016,-0.219897 0.166029,-0.34442 0.09401,-0.390053 -0.02224,-0.85744 -0.166029,-1.205473 -0.0384,-0.09294 -0.146322,-0.420306 -0.166029,-0.430526 -0.261504,-0.13562 -1.846107,0.09111 -2.241397,0 -0.444884,-0.102544 -0.865396,-0.377187 -1.328235,-0.430527 -0.68933,-0.07944 -1.461853,0 -2.1583814,0 -0.2168727,0 -1.1726434,-0.07528 -1.3282342,0.0861 -0.019571,0.0203 0,0.05741 0,0.08611 -0.02767,0.0287 -0.055343,0.0574 -0.083013,0.08611"
       id="path39" /><path
       style="fill:#00ff00;stroke-width:0.0865971"
       d="M 8.8088273,5.8551577 C 8.4170399,6.0989809 8.3666685,6.0255443 8.2277246,6.4578941 c -0.00289,0.00907 -0.138645,0.5450331 -0.083013,0.6027364 0.2010806,0.2085666 0.329506,0.08478 0.4980866,0.1722099 0.024745,0.012833 -0.019571,0.06581 0,0.086103 0.047415,0.04918 0.6897864,0.1589 0.8301476,0.086107 0.2531584,-0.1312933 -0.1518308,-0.068263 0.2490449,-0.17221 0.1893602,-0.049103 0.4912453,0.089653 0.6641153,0 0.152631,-0.079157 0.266743,-0.4460431 0.166029,-0.6027364 -0.04151,-0.06458 -0.186783,0.0323 -0.249041,0 -0.210905,-0.1093799 0.08501,-0.1029133 -0.249045,-0.1722099 -0.1189007,-0.024667 -1.0406738,0.03995 -1.0791931,0 C 8.8652693,6.3442241 8.8206793,5.9166176 8.8088273,5.8551577 Z"
       id="path40" /><path
       style="fill:#1a1a1a;stroke-width:0.0865971"
       d="m 11.050225,15.154521 c 0.02767,0.143506 0.06743,0.285069 0.08301,0.430523 0.05977,0.557916 0,1.160269 0,1.722106 0,0.561933 0.05969,1.164886 0,1.722102 -0.05563,0.519314 -0.332058,0.942693 -0.332058,1.46379"
       id="path41" /><path
       style="fill:#1a1a1a;stroke-width:0.0865971"
       d="m 11.880369,16.359993 c 0.304388,0 0.608776,0 0.913164,0 0.268552,0 2.886916,0.105394 3.071542,-0.08611"
       id="path42" /><path
       style="fill:#1a1a1a;stroke-width:0.0865971"
       d="m 12.295443,17.30715 c 0.992378,0.13336 1.981079,0.258316 2.98853,0.258316"
       id="path43" /><path
       style="fill:#1a1a1a;stroke-width:0.0865971"
       d="m 11.299267,18.426516 c 1.325467,0.0885 2.652355,0.08611 3.984706,0.08611"
       id="path44" /><path
       style="fill:#1a1a1a;stroke-width:0.0865971"
       d="m 11.631328,19.373676 c 1.043408,-0.21645 -0.327861,0.03874 0.996176,-0.08611 0.113623,-0.0107 0.221372,-0.0574 0.332058,-0.0861 0.138359,-0.0287 0.274555,-0.07286 0.415074,-0.08611 0.488535,-0.04606 1.00117,0 1.494263,0"
       id="path45" /><path
       style="fill:#1a1a1a;stroke-width:0.0865971"
       d="M 10.386106,16.359993 9.7219909,15.67115"
       id="path46" /><path
       style="fill:#1a1a1a;stroke-width:0.0865971"
       d="m 9.223901,16.359993 1.328234,1.463787"
       id="path47" /><path
       style="fill:#1a1a1a;stroke-width:0.0865971"
       d="M 10.469122,17.47936 9.223901,15.929467"
       id="path48" /><text
       xml:space="preserve"
       style="font-size:3.175px;fill:#1a1a1a;stroke-width:0.264583"
       x="24.023365"
       y="137.424"
       id="text49"><tspan
         sodipodi:role="line"
         id="tspan49"
         style="stroke-width:0.264583"></tspan></text><text
       xml:space="preserve"
       style="font-size:1.03917px;fill:#1a1a1a;stroke-width:0.0865971"
       x="10.154944"
       y="16.486439"
       id="text50"
       transform="scale(0.98188972,1.0184443)"><tspan
         sodipodi:role="line"
         id="tspan50"
         style="stroke-width:0.0865971"
         x="10.154944"
         y="16.486439">$</tspan></text><text
       xml:space="preserve"
       style="font-size:1.03917px;fill:#1a1a1a;stroke-width:0.0865971"
       x="9.4785767"
       y="17.3319"
       id="text51"
       transform="scale(0.98188972,1.0184443)"><tspan
         sodipodi:role="line"
         id="tspan51"
         style="stroke-width:0.0865971"
         x="9.4785767"
         y="17.3319">$</tspan></text><text
       xml:space="preserve"
       style="font-size:1.03917px;fill:#1a1a1a;stroke-width:0.0865971"
       x="10.23949"
       y="19.107355"
       id="text52"
       transform="scale(0.98188972,1.0184443)"><tspan
         sodipodi:role="line"
         id="tspan52"
         style="stroke-width:0.0865971"
         x="10.23949"
         y="19.107355">$</tspan></text><path
       style="fill:#ffcc00;stroke-width:0.0865971"
       d="M 3.6619194,9.5576795 C 3.8159773,10.501366 5.1760302,10.029379 5.4882402,10.677049"
       id="path52" /><path
       style="fill:#ffcc00;stroke-width:0.0865971"
       d="m 18.770588,9.9021027 c -0.249041,0.1148063 -0.515026,0.1962663 -0.747131,0.3444203 -0.227198,0.14502 -0.301473,0.358016 -0.498087,0.516629 -0.322937,0.260527 -0.952541,0.67394 -1.245221,0.94716 -0.04119,0.03845 -0.152959,0.284623 -0.249045,0.34442 -0.383367,0.238586 -0.40121,0.229593 -0.747131,0.51663 -0.24767,0.205513 -0.558267,0.347433 -0.830148,0.516633 -0.05306,0.03303 -0.02767,0.143506 -0.08301,0.17221 -0.07425,0.03851 -0.174792,-0.03851 -0.249045,0 -0.16867,0.08748 -0.0022,0.260743 -0.08302,0.34442 -0.190777,0.197883 -0.166029,-0.02233 -0.166029,0.172209"
       id="path53" /><path
       style="fill:#ffcc00;stroke-width:0.0865971"
       d="m 4.7411087,10.160416 c 0.5124004,0.573193 1.0514776,1.086809 1.6602951,1.549896 0.1609095,0.122393 0.3497684,0.205963 0.4980866,0.34442 0.292478,0.27303 0.5879735,0.806023 0.9961765,0.947156 0.052502,0.01817 0.1123377,-0.01393 0.1660288,0 0.2582457,0.06697 0.3048571,0.344423 0.5811027,0.344423 0.4422905,1.17703 1.8881366,0.580743 2.5734556,1.291576"
       id="path54" /><path
       style="fill:#ffcc00;stroke-width:0.0865971"
       d="m 19.517723,10.160416 c -0.552507,-0.04802 -0.68038,0.195353 -1.162208,0.516633 -0.77835,0.518997 -0.400413,0.134903 -1.07919,0.774946 -0.405169,0.38205 -0.792238,0.917203 -1.328234,1.119367 -0.158187,0.05966 -0.340487,0.0248 -0.49809,0.08611 -0.339828,0.13218 -0.458683,0.68154 -0.747131,0.861053 -0.143765,0.08947 -0.604389,0.307407 -0.747132,0.34442 -0.340005,0.08817 -0.166646,-0.120163 -0.498089,0.08611 -0.169217,0.10531 -0.541665,0.51663 -0.664116,0.51663"
       id="path55" /><path
       style="fill:#ffcc00;stroke-width:0.0865971"
       d="M 8.0616957,14.379571 C 7.431083,15.257924 7.1006513,16.321333 6.6504455,17.30715 6.2808808,18.116389 6.0669904,18.367243 5.98633,19.287569 c -0.051599,0.58872 -0.0718,1.642953 0,2.238736 0.096436,0.800223 0.083013,0.032 0.083013,0.516633"
       id="path56" /><path
       style="fill:#ffcc00;stroke-width:0.0865971"
       d="m 6.9825065,22.301251 c -0.014526,0.792966 0.3320577,1.427346 0.3320577,2.238736"
       id="path57" /><path
       style="fill:#ffcc00;stroke-width:0.0865971"
       d="m 14.868899,23.678937 c 0.401203,-0.412803 0.635584,-0.344423 1.162205,-0.344423 0.05534,0 0.116532,0.02567 0.166029,0 0.07425,-0.03851 -0.02626,-0.176627 0,-0.258313 0.01237,-0.03851 0.07534,-0.0463 0.08302,-0.08611 0.0329,-0.170606 0.06702,-0.945579 0,-1.119366 -0.08987,-0.23304 -0.498087,-0.0741 -0.498087,-0.430527"
       id="path58" /><path
       style="fill:#ffcc00;stroke-width:0.0865971"
       d="m 7.8956669,12.313048 c -0.2761781,1.4323 -0.249045,0.852527 -0.249045,1.722103 0,0.17221 -0.1173993,0.39486 0,0.516633 0.019571,0.0203 0.063448,-0.0203 0.083016,0 0.028473,0.02953 0.021114,0.300593 0,0.34442 0.031012,0.18758 -0.138359,0.0287 -0.1660289,0.0861 -0.048993,0.101634 0,0.400884 0,0.516633"
       id="path59" /><path
       style="fill:#ffcc00;stroke-width:0.0865971"
       d="m 15.948091,12.829678 c -0.168773,0.330113 0.276027,0.256177 0.332058,0.430527 0.05581,0.173666 0.08993,1.157039 -0.08302,1.291579 -0.13421,0.104403 -0.415071,0.0039 -0.415071,0.258313 0,0.04059 0.06848,0.04842 0.08301,0.08611 0.04237,0.109877 0.06064,0.22838 0.08302,0.34442 0.03593,0.186346 0,0.413796 0,0.602736"
       id="path60" /><path
       style="fill:#00ff00;stroke-width:0.0865971"
       d="m 7.5636091,8.5244166 c 0.2808637,0.4043065 0.5236837,1.2469128 0.9131604,1.5498964 0.1714311,0.13336 0.4050599,0.148756 0.5811027,0.258313 0.067115,0.04177 0.096025,0.135906 0.1660288,0.172213 0.6570422,0.34075 2.679167,0.17221 3.486616,0.17221 0.237431,0 1.565687,0.09813 1.743308,-0.08611 0.06104,-0.06331 -0.02285,-0.421849 0,-0.516629 0.03336,-0.1384136 0.05746,-0.2118969 0.08302,-0.3444236 C 14.63859,9.20222 14.951919,9.2469366 14.951919,8.9549401"
       id="path34" /><path
       style="fill:#ffcc00;stroke-width:0.0865971"
       d="m 15.948091,20.320832 c 0.395117,0.74223 0.29538,1.679986 0.249042,2.497052 -0.0087,0.154297 -0.118903,0.283893 -0.166029,0.430527"
       id="path61" /></g></svg>
